<svg height="1918" width="720" xmlns="http://www.w3.org/2000/svg">
<rect height="1918" fill="#555" width="720"></rect>
<text fill="#7f7" font-family="Courier New" font-size="12" xml:space="preserve">
<tspan x="10" y="26"></tspan>
<tspan x="10" y="42">&gt; npmdoc-d3@0.0.1 test /home/travis/build/npmdoc/node-npmdoc-d3</tspan>
<tspan x="10" y="58">&gt; (set -e; export PORT=$(utility2 shServerPortRandom); utility2 test test.js)</tspan>
<tspan x="10" y="74"></tspan>
<tspan x="10" y="90"></tspan>
<tspan x="10" y="106">[MODE_BUILD=npmTest] - 2017-03-25T14:50:10Z - npm-testing /home/travis/build/npmdoc/node-npmdoc-\</tspan>
<tspan x="10" y="122">d3</tspan>
<tspan x="10" y="138"></tspan>
<tspan x="10" y="154"></tspan>
<tspan x="10" y="170">covering $ /home/travis/.nvm/versions/node/v6.10.1/bin/node /home/travis/build/npmdoc/node-npmdo\</tspan>
<tspan x="10" y="186">c-d3/test.js</tspan>
<tspan x="10" y="202">merging file:///home/travis/build/npmdoc/node-npmdoc-d3/tmp/build/test-report.json to test-repor\</tspan>
<tspan x="10" y="218">t</tspan>
<tspan x="10" y="234">&gt; server listening on http-port 44591</tspan>
<tspan x="10" y="250">created apidoc file:///home/travis/build/npmdoc/node-npmdoc-d3/tmp/build/apidoc.html</tspan>
<tspan x="10" y="266"></tspan>
<tspan x="10" y="282"></tspan>
<tspan x="10" y="298">browserTest - created electron entry-page /home/travis/build/npmdoc/node-npmdoc-d3/tmp/electron.\</tspan>
<tspan x="10" y="314">15b05f237850.d1834eb140227.html</tspan>
<tspan x="10" y="330"></tspan>
<tspan x="10" y="346">Xlib:  extension "RANDR" missing on display ":99.0".</tspan>
<tspan x="10" y="362">[node test-case 1 of 6 passed] - testCase_buildLib_default</tspan>
<tspan x="10" y="378">[node test-case 2 of 6 passed] - testCase_buildReadme_default</tspan>
<tspan x="10" y="394">[node test-case 3 of 6 passed] - testCase_buildTest_default</tspan>
<tspan x="10" y="410"></tspan>
<tspan x="10" y="426">browserTest - created electron entry-page /home/travis/build/npmdoc/node-npmdoc-d3/tmp/electron.\</tspan>
<tspan x="10" y="442">15b05f238f00.8e0e147bb5c4f.html</tspan>
<tspan x="10" y="458"></tspan>
<tspan x="10" y="474">Xlib:  extension "RANDR" missing on display ":99.0".</tspan>
<tspan x="10" y="490">merging file:///home/travis/build/npmdoc/node-npmdoc-d3/tmp/build/test-report.json to test-repor\</tspan>
<tspan x="10" y="506">t</tspan>
<tspan x="10" y="522">&gt; server listening on http-port 41177</tspan>
<tspan x="10" y="538">Xlib:  extension "RANDR" missing on display ":99.0".</tspan>
<tspan x="10" y="554">[4693:0325/145012:WARNING:audio_manager.cc(314)] Multiple instances of AudioManager detected</tspan>
<tspan x="10" y="570">[4693:0325/145012:WARNING:audio_manager.cc(275)] Multiple instances of AudioManager detected</tspan>
<tspan x="10" y="586">[4739:0325/145012:ERROR:sandbox_linux.cc(343)] InitializeSandbox() called with multiple threads \</tspan>
<tspan x="10" y="602">in process gpu-process. </tspan>
<tspan x="10" y="618">[4693:0325/145012:ERROR:browser_gpu_channel_host_factory.cc(131)] Failed to create channel.</tspan>
<tspan x="10" y="634"></tspan>
<tspan x="10" y="650">browserTest - opened url file:///home/travis/build/npmdoc/node-npmdoc-d3/tmp/build/apidoc.html</tspan>
<tspan x="10" y="666"></tspan>
<tspan x="10" y="682">merging file:///home/travis/build/npmdoc/node-npmdoc-d3/tmp/build/test-report.json to test-repor\</tspan>
<tspan x="10" y="698">t</tspan>
<tspan x="10" y="714">Xlib:  extension "RANDR" missing on display ":99.0".</tspan>
<tspan x="10" y="730">[4717:0325/145013:WARNING:audio_manager.cc(314)] Multiple instances of AudioManager detected</tspan>
<tspan x="10" y="746">[4717:0325/145013:WARNING:audio_manager.cc(275)] Multiple instances of AudioManager detected</tspan>
<tspan x="10" y="762">[4779:0325/145013:ERROR:sandbox_linux.cc(343)] InitializeSandbox() called with multiple threads \</tspan>
<tspan x="10" y="778">in process gpu-process. </tspan>
<tspan x="10" y="794"></tspan>
<tspan x="10" y="810">browserTest - opened url http://127.0.0.1:44591?modeTest=1</tspan>
<tspan x="10" y="826"></tspan>
<tspan x="10" y="842">[4717:0325/145015:INFO:CONSOLE(203)] "----------|-----------|-----------|-----------|-----------\</tspan>
<tspan x="10" y="858">|</tspan>
<tspan x="10" y="874">File      |   % Stmts |% Branches |   % Funcs |   % Lines |</tspan>
<tspan x="10" y="890">----------|-----------|-----------|-----------|-----------|</tspan>
<tspan x="10" y="906">----------|-----------|-----------|-----------|-----------|</tspan>
<tspan x="10" y="922">All files |       100 |       100 |       100 |       100 |</tspan>
<tspan x="10" y="938">----------|-----------|-----------|-----------|-----------|</tspan>
<tspan x="10" y="954">", source: file:///home/travis/build/npmdoc/node-npmdoc-d3/tmp/electron.15b05f238f00.8e0e147bb5c\</tspan>
<tspan x="10" y="970">4f.html (203)</tspan>
<tspan x="10" y="986">[4717:0325/145015:INFO:CONSOLE(203)] "created coverage file:///tmp/build/coverage.html/index.htm\</tspan>
<tspan x="10" y="1002">l", source: file:///home/travis/build/npmdoc/node-npmdoc-d3/tmp/electron.15b05f238f00.8e0e147bb5\</tspan>
<tspan x="10" y="1018">c4f.html (203)</tspan>
<tspan x="10" y="1034">[node test-case 4 of 6 passed] - testCase_buildApp_default</tspan>
<tspan x="10" y="1050"></tspan>
<tspan x="10" y="1066">browserTest - created screen-capture file:///home/travis/build/npmdoc/node-npmdoc-d3/tmp/build/s\</tspan>
<tspan x="10" y="1082">creen-capture.npmTest.browser._2Fhome_2Ftravis_2Fbuild_2Fnpmdoc_2Fnode-npmdoc-d3_2Ftmp_2Fbuild_2\</tspan>
<tspan x="10" y="1098">Fapidoc.html.png</tspan>
<tspan x="10" y="1114"></tspan>
<tspan x="10" y="1130"></tspan>
<tspan x="10" y="1146">browserTest - exit-code 0 - file:///home/travis/build/npmdoc/node-npmdoc-d3/tmp/build/apidoc.htm\</tspan>
<tspan x="10" y="1162">l</tspan>
<tspan x="10" y="1178"></tspan>
<tspan x="10" y="1194">[node test-case 5 of 6 passed] - testCase_buildApidoc_default</tspan>
<tspan x="10" y="1210"></tspan>
<tspan x="10" y="1226">browserTest - created screen-capture file:///home/travis/build/npmdoc/node-npmdoc-d3/tmp/build/s\</tspan>
<tspan x="10" y="1242">creen-capture.npmTest.browser..png</tspan>
<tspan x="10" y="1258"></tspan>
<tspan x="10" y="1274"></tspan>
<tspan x="10" y="1290">browserTest - exit-code 0 - http://127.0.0.1:44591?modeTest=1</tspan>
<tspan x="10" y="1306"></tspan>
<tspan x="10" y="1322"></tspan>
<tspan x="10" y="1338">browserTest - merged coverage from /home/travis/build/npmdoc/node-npmdoc-d3/tmp/coverage.npmTest\</tspan>
<tspan x="10" y="1354">.browser.%2F.json</tspan>
<tspan x="10" y="1370"></tspan>
<tspan x="10" y="1386"></tspan>
<tspan x="10" y="1402">browserTest - merging test-report from /home/travis/build/npmdoc/node-npmdoc-d3/tmp/test-report.\</tspan>
<tspan x="10" y="1418">npmTest.browser.%2F.json</tspan>
<tspan x="10" y="1434"></tspan>
<tspan x="10" y="1450">[node test-case 6 of 6 passed] - testCase_webpage_default</tspan>
<tspan x="10" y="1466">-----------------------|-----------|-----------|-----------|-----------|</tspan>
<tspan x="10" y="1482">File                   |   % Stmts |% Branches |   % Funcs |   % Lines |</tspan>
<tspan x="10" y="1498">-----------------------|-----------|-----------|-----------|-----------|</tspan>
<tspan x="10" y="1514">   node-npmdoc-d3/     |       100 |       100 |       100 |       100 |</tspan>
<tspan x="10" y="1530">      example.js       |       100 |       100 |       100 |       100 |</tspan>
<tspan x="10" y="1546">      lib.npmdoc_d3.js |       100 |       100 |       100 |       100 |</tspan>
<tspan x="10" y="1562">      test.js          |       100 |       100 |       100 |       100 |</tspan>
<tspan x="10" y="1578">-----------------------|-----------|-----------|-----------|-----------|</tspan>
<tspan x="10" y="1594">All files              |       100 |       100 |       100 |       100 |</tspan>
<tspan x="10" y="1610">-----------------------|-----------|-----------|-----------|-----------|</tspan>
<tspan x="10" y="1626"></tspan>
<tspan x="10" y="1642">created coverage file:///home/travis/build/npmdoc/node-npmdoc-d3/tmp/build/coverage.html/index.h\</tspan>
<tspan x="10" y="1658">tml</tspan>
<tspan x="10" y="1674">merging file:///home/travis/build/npmdoc/node-npmdoc-d3/tmp/build/test-report.json to test-repor\</tspan>
<tspan x="10" y="1690">t</tspan>
<tspan x="10" y="1706"></tspan>
<tspan x="10" y="1722">-------------------------------------------------------</tspan>
<tspan x="10" y="1738">| test-report - buildNpmdoc - node - linux v6.10.1 - 2017-03-25T14:50:00.524Z</tspan>
<tspan x="10" y="1754">|   16993 ms            0 failed        6 passed      |</tspan>
<tspan x="10" y="1770">-------------------------------------------------------</tspan>
<tspan x="10" y="1786"></tspan>
<tspan x="10" y="1802">created test-report file:///home/travis/build/npmdoc/node-npmdoc-d3/tmp/build/test-report.html</tspan>
<tspan x="10" y="1818"></tspan>
<tspan x="10" y="1834"></tspan>
<tspan x="10" y="1850">npmTest - 0 failed tests</tspan>
<tspan x="10" y="1866"></tspan>
<tspan x="10" y="1882"></tspan>
<tspan x="10" y="1898">[MODE_BUILD=npmTest] - 2017-03-25T14:50:20Z - EXIT_CODE - 0</tspan>
</text>
</svg>
